<svg width="32" height="32" viewBox="0 0 32 32" fill="none" xmlns="http://www.w3.org/2000/svg">
    <path d="M16.0002 10.6666C17.4668 10.6666 18.6668 9.46659 18.6668 7.99992C18.6668 6.53325 17.4668 5.33325 16.0002 5.33325C14.5335 5.33325 13.3335 6.53325 13.3335 7.99992C13.3335 9.46659 14.5335 10.6666 16.0002 10.6666ZM16.0002 13.3333C14.5335 13.3333 13.3335 14.5333 13.3335 15.9999C13.3335 17.4666 14.5335 18.6666 16.0002 18.6666C17.4668 18.6666 18.6668 17.4666 18.6668 15.9999C18.6668 14.5333 17.4668 13.3333 16.0002 13.3333ZM16.0002 21.3333C14.5335 21.3333 13.3335 22.5333 13.3335 23.9999C13.3335 25.4666 14.5335 26.6666 16.0002 26.6666C17.4668 26.6666 18.6668 25.4666 18.6668 23.9999C18.6668 22.5333 17.4668 21.3333 16.0002 21.3333Z" fill="#5F6368" />
</svg>
    