<svg width="22" height="22" viewBox="0 0 22 22" fill="none" xmlns="http://www.w3.org/2000/svg">
    <path fill-rule="evenodd" clip-rule="evenodd" d="M2.21667 3.45833C2.21667 2.97508 2.60843 2.58333 3.09167 2.58333H9.21667C9.69992 2.58333 10.0917 2.97508 10.0917 3.45833V9.58333C10.0917 10.0666 9.69992 10.4583 9.21667 10.4583H3.09167C2.60843 10.4583 2.21667 10.0666 2.21667 9.58333V3.45833ZM3.96667 4.33333V8.70833H8.34167V4.33333H3.96667Z" fill="white" />
    <path fill-rule="evenodd" clip-rule="evenodd" d="M11.8417 3.45833C11.8417 2.97508 12.2334 2.58333 12.7167 2.58333H18.8417C19.3249 2.58333 19.7167 2.97508 19.7167 3.45833V9.58333C19.7167 10.0666 19.3249 10.4583 18.8417 10.4583H12.7167C12.2334 10.4583 11.8417 10.0666 11.8417 9.58333V3.45833ZM13.5917 4.33333V8.70833H17.9667V4.33333H13.5917Z" fill="white" />
    <path fill-rule="evenodd" clip-rule="evenodd" d="M11.8417 13.0833C11.8417 12.6001 12.2334 12.2083 12.7167 12.2083H18.8417C19.3249 12.2083 19.7167 12.6001 19.7167 13.0833V19.2083C19.7167 19.6916 19.3249 20.0833 18.8417 20.0833H12.7167C12.2334 20.0833 11.8417 19.6916 11.8417 19.2083V13.0833ZM13.5917 13.9583V18.3333H17.9667V13.9583H13.5917Z" fill="white" />
    <path fill-rule="evenodd" clip-rule="evenodd" d="M2.21667 13.0833C2.21667 12.6001 2.60843 12.2083 3.09167 12.2083H9.21667C9.69992 12.2083 10.0917 12.6001 10.0917 13.0833V19.2083C10.0917 19.6916 9.69992 20.0833 9.21667 20.0833H3.09167C2.60843 20.0833 2.21667 19.6916 2.21667 19.2083V13.0833ZM3.96667 13.9583V18.3333H8.34167V13.9583H3.96667Z" fill="white" />
</svg>
    