<svg width="42" height="42" viewBox="0 0 42 42" fill="none" xmlns="http://www.w3.org/2000/svg">
    <circle cx="21.18" cy="20.9803" r="20.6453" fill="#C6CACC" />
    <path d="M28.8956 14.3071H26.6017C26.6017 11.4293 24.0325 9.09363 20.8668 9.09363C17.7012 9.09363 15.132 11.4293 15.132 14.3071H12.8381C11.5765 14.3071 10.5442 15.2455 10.5442 16.3925V28.9048C10.5442 30.0518 11.5765 30.9902 12.8381 30.9902H28.8956C30.1572 30.9902 31.1895 30.0518 31.1895 28.9048V16.3925C31.1895 15.2455 30.1572 14.3071 28.8956 14.3071ZM20.8668 11.179C22.7708 11.179 24.3077 12.5762 24.3077 14.3071H17.426C17.426 12.5762 18.9629 11.179 20.8668 11.179ZM28.8956 28.9048H12.8381V16.3925H28.8956V28.9048ZM20.8668 20.5632C18.9629 20.5632 17.426 19.166 17.426 17.4352H15.132C15.132 20.313 17.7012 22.6486 20.8668 22.6486C24.0325 22.6486 26.6017 20.313 26.6017 17.4352H24.3077C24.3077 19.166 22.7708 20.5632 20.8668 20.5632Z" fill="white" />
</svg>
    