<svg width="25" height="25" viewBox="0 0 25 25" fill="none" xmlns="http://www.w3.org/2000/svg">
    <path fill-rule="evenodd" clip-rule="evenodd" d="M5.46577 2.98104C6.2437 2.65802 7.07775 2.49174 7.92008 2.49174C8.76241 2.49174 9.59645 2.65802 10.3744 2.98104C11.1523 3.30407 11.8588 3.77747 12.4534 4.37413L12.4567 4.37747L12.5151 4.43658L12.5734 4.37747L12.5767 4.37413C13.1713 3.77748 13.8778 3.30407 14.6558 2.98104C15.4337 2.65802 16.2677 2.49174 17.1101 2.49174C17.9524 2.49174 18.7865 2.65802 19.5644 2.98104C20.342 3.30395 21.0483 3.77715 21.6428 4.37351C24.1878 6.9192 24.2444 11.1284 21.2287 14.2005L21.2222 14.2071L13.2222 22.2071C13.0346 22.3946 12.7803 22.5 12.5151 22.5C12.2499 22.5 11.9955 22.3946 11.808 22.2071L3.80141 14.2006C0.785713 11.1284 0.842334 6.91919 3.38736 4.3735C3.98182 3.77715 4.68811 3.30395 5.46577 2.98104ZM7.92008 4.49174C7.34098 4.49174 6.76757 4.60606 6.23274 4.82814C5.69791 5.05022 5.21219 5.37568 4.80341 5.78588L4.80218 5.78711C3.10857 7.48072 2.90483 10.4293 5.22559 12.7963L12.5151 20.0858L19.8045 12.7963C22.1253 10.4293 21.9216 7.48073 20.228 5.78711L20.2267 5.78588C19.818 5.37568 19.3322 5.05022 18.7974 4.82814C18.2626 4.60606 17.6892 4.49174 17.1101 4.49174C16.531 4.49174 15.9576 4.60606 15.4227 4.82814C14.8886 5.04992 14.4035 5.37483 13.995 5.78426C13.9945 5.7848 13.9939 5.78534 13.9934 5.78588L13.2267 6.56253C13.0388 6.75287 12.7825 6.86 12.5151 6.86C12.2476 6.86 11.9913 6.75287 11.8034 6.56253L11.0367 5.78588C11.0362 5.78534 11.0357 5.7848 11.0351 5.78426C10.6267 5.37483 10.1415 5.04992 9.60741 4.82814C9.07258 4.60606 8.49918 4.49174 7.92008 4.49174Z" fill="black" />
</svg>
    