<svg width="43" height="42" viewBox="0 0 43 42" fill="none" xmlns="http://www.w3.org/2000/svg">
    <circle cx="21.4358" cy="20.9803" r="20.6453" fill="#C6CACC" />
    <path d="M23.2602 30.9851L13.5799 21.0744L13.6359 19.1103C18.179 19.3665 21.7111 18.973 22.5329 15.4566L12.8525 15.4111L14.4192 13.2642L22.1412 13.3552C20.9646 11.3543 17.7288 11.1077 12.6846 11.2546L14.4192 9.15323L30.8147 9.13318L29.1919 11.2085H24.6595C25.4879 11.924 26.0942 12.7473 26.1144 13.4464L30.8147 13.4007L29.1919 15.456L26.0584 15.5016C25.5692 18.5674 22.1269 20.3826 17.7769 20.7997L27.522 30.9823L23.2606 30.9843V30.9843L23.2602 30.9851Z" fill="white" stroke="white" stroke-width="0.099084" />
</svg>
    