<svg width="42" height="42" viewBox="0 0 42 42" fill="none" xmlns="http://www.w3.org/2000/svg">
    <circle cx="21.3074" cy="20.9803" r="20.6453" fill="#C6CACC" />
    <path d="M20.6821 18.9471C22.2422 18.9471 25.3742 19.6806 25.3742 21.1367V21.3119C24.2364 22.5381 22.5589 23.3264 20.6821 23.3264C18.8052 23.3264 17.1278 22.5381 15.99 21.3119V21.1367C15.99 19.6806 19.122 18.9471 20.6821 18.9471ZM20.6821 17.8522C19.3918 17.8522 18.336 16.8669 18.336 15.6626C18.336 14.4583 19.3918 13.4729 20.6821 13.4729C21.9724 13.4729 23.0281 14.4583 23.0281 15.6626C23.0281 16.8669 21.9724 17.8522 20.6821 17.8522ZM27.7203 18.0712C27.7203 14.097 24.6117 11.2833 20.6821 11.2833C16.7524 11.2833 13.6439 14.097 13.6439 18.0712C13.6439 20.6331 15.9313 24.0271 20.6821 28.0779C25.4329 24.0271 27.7203 20.6331 27.7203 18.0712ZM20.6821 9.09363C25.6088 9.09363 30.0663 12.619 30.0663 18.0712C30.0663 21.706 26.9343 26.0087 20.6821 30.9902C14.4298 26.0087 11.2979 21.706 11.2979 18.0712C11.2979 12.619 15.7554 9.09363 20.6821 9.09363Z" fill="white" />
</svg>
    