<svg width="25" height="25" viewBox="0 0 25 25" fill="none" xmlns="http://www.w3.org/2000/svg">
    <g clip-path="url(#clip0_1208_142)">
        <path fill-rule="evenodd" clip-rule="evenodd" d="M7.08936 21.5C7.08936 20.3954 7.98479 19.5 9.08936 19.5C10.1939 19.5 11.0894 20.3954 11.0894 21.5C11.0894 22.6046 10.1939 23.5 9.08936 23.5C7.98479 23.5 7.08936 22.6046 7.08936 21.5Z" fill="#2F294D" />
        <path fill-rule="evenodd" clip-rule="evenodd" d="M18.0894 21.5C18.0894 20.3954 18.9848 19.5 20.0894 19.5C21.1939 19.5 22.0894 20.3954 22.0894 21.5C22.0894 22.6046 21.1939 23.5 20.0894 23.5C18.9848 23.5 18.0894 22.6046 18.0894 21.5Z" fill="#2F294D" />
        <path fill-rule="evenodd" clip-rule="evenodd" d="M0.0893555 1.5C0.0893555 0.947715 0.537071 0.5 1.08936 0.5H5.08936C5.56598 0.5 5.97637 0.836385 6.06991 1.30374L6.90979 5.5H23.0894C23.3874 5.5 23.6699 5.63293 23.8599 5.86256C24.0498 6.09218 24.1275 6.39458 24.0717 6.68733L22.4702 15.0848C22.3331 15.7754 21.9573 16.3958 21.4089 16.8373C20.8632 17.2766 20.181 17.511 19.4807 17.5H9.778C9.07773 17.511 8.39556 17.2766 7.84983 16.8373C7.3016 16.3959 6.92599 15.7759 6.78868 15.0857C6.78863 15.0854 6.78874 15.0859 6.78868 15.0857L5.11815 6.7392C5.11137 6.71159 5.10574 6.68353 5.10131 6.65508L4.26967 2.5H1.08936C0.537071 2.5 0.0893555 2.05228 0.0893555 1.5ZM7.31008 7.5L8.7502 14.6952C8.79592 14.9254 8.92115 15.1322 9.10397 15.2793C9.28679 15.4265 9.51554 15.5047 9.7502 15.5002L9.76936 15.5H19.4894L19.5085 15.5002C19.7432 15.5047 19.9719 15.4265 20.1547 15.2793C20.3367 15.1328 20.4616 14.9273 20.5079 14.6984L21.8806 7.5H7.31008Z" fill="#2F294D" />
    </g>
    <defs>
        <clipPath id="clip0_1208_142">
            <rect width="24" height="24" fill="white" transform="translate(0.0893555 0.5)" />
        </clipPath>
    </defs>
</svg>
    